<?xml version="1.0" encoding="UTF-8"?>
<!DOCTYPE svg PUBLIC "-//W3C//DTD SVG 1.1//EN" "http://www.w3.org/Graphics/SVG/1.1/DTD/svg11.dtd">
<svg xmlns="http://www.w3.org/2000/svg" version="1.1" width="612px" height="408px" style="shape-rendering:geometricPrecision; text-rendering:geometricPrecision; image-rendering:optimizeQuality; fill-rule:evenodd; clip-rule:evenodd" xmlns:xlink="http://www.w3.org/1999/xlink">
<g><path style="opacity:0.995" fill="#dbeffe" d="M 517.5,166.5 C 508.37,181.761 500.037,197.427 492.5,213.5C 491.5,213.5 490.5,213.5 489.5,213.5C 489.037,216.482 488.704,219.482 488.5,222.5C 488.167,222.5 487.833,222.5 487.5,222.5C 487.759,218.76 487.426,215.094 486.5,211.5C 484.604,210.534 482.604,210.201 480.5,210.5C 480.5,206.833 480.5,203.167 480.5,199.5C 461.497,199.333 442.497,199.5 423.5,200C 422.549,203.057 422.216,206.223 422.5,209.5C 420.552,210.131 418.719,211.131 417,212.5C 416.502,215.817 416.335,219.15 416.5,222.5C 411.167,222.5 405.833,222.5 400.5,222.5C 401.906,218.613 402.906,214.613 403.5,210.5C 403.415,208.667 402.748,207.334 401.5,206.5C 406.226,201.198 407.226,195.365 404.5,189C 402.559,188.257 400.726,188.424 399,189.5C 399.555,181.083 395.888,175.75 388,173.5C 384.537,174.137 381.704,175.803 379.5,178.5C 379.631,177.624 379.298,176.957 378.5,176.5C 377.264,177.246 375.93,177.579 374.5,177.5C 374.414,183.142 374.414,188.476 374.5,193.5C 370.577,197.715 370.577,202.049 374.5,206.5C 373.503,206.47 372.836,206.97 372.5,208C 373.145,213.064 374.479,217.898 376.5,222.5C 373.15,222.335 369.817,222.502 366.5,223C 365.183,225.937 365.183,228.77 366.5,231.5C 366.5,232.5 366.5,233.5 366.5,234.5C 439.833,234.5 513.167,234.5 586.5,234.5C 599.695,277.994 593.195,318.328 567,355.5C 564.766,357.7 562.266,359.533 559.5,361C 567.575,362.103 575.575,362.937 583.5,363.5C 573.167,363.5 562.833,363.5 552.5,363.5C 556.834,358.84 560.168,353.506 562.5,347.5C 563.434,346.432 563.768,345.099 563.5,343.5C 564.434,342.432 564.768,341.099 564.5,339.5C 565.404,338.791 565.737,337.791 565.5,336.5C 538.833,336.5 512.167,336.5 485.5,336.5C 485.263,337.791 485.596,338.791 486.5,339.5C 486.5,340.833 486.5,342.167 486.5,343.5C 487.234,344.708 487.567,346.041 487.5,347.5C 486.041,347.433 484.708,347.766 483.5,348.5C 483.5,347.167 483.5,345.833 483.5,344.5C 462.164,344.333 440.831,344.5 419.5,345C 417.209,350.332 416.876,355.832 418.5,361.5C 414.702,362.483 410.702,362.817 406.5,362.5C 406.5,362.167 406.5,361.833 406.5,361.5C 406.5,361.167 406.5,360.833 406.5,360.5C 420.589,331.152 434.589,301.652 448.5,272C 448.241,270.739 447.574,269.739 446.5,269C 399.665,268.168 352.998,268.335 306.5,269.5C 299.783,281.992 293.45,294.658 287.5,307.5C 282.423,294.63 278.923,281.297 277,267.5C 274.902,258.798 270.402,251.632 263.5,246C 257.077,243.117 250.743,240.283 244.5,237.5C 245.239,237.631 245.906,237.464 246.5,237C 245.299,236.097 244.465,234.931 244,233.5C 240.119,231.554 236.786,228.888 234,225.5C 233.275,222.623 233.775,219.957 235.5,217.5C 234.675,216.614 233.675,216.281 232.5,216.5C 246.229,213.105 255.563,204.771 260.5,191.5C 273.543,191.049 281.377,184.383 284,171.5C 286.241,159.89 283.074,150.056 274.5,142C 271.439,139.965 268.105,138.799 264.5,138.5C 267.094,134.728 269.927,131.061 273,127.5C 276.657,119.881 277.991,111.881 277,103.5C 274.153,93.6547 267.653,89.8214 257.5,92C 255.413,92.7922 253.579,93.9588 252,95.5C 251.435,83.8514 245.602,80.0181 234.5,84C 226.509,90.3287 217.509,94.4954 207.5,96.5C 185.335,93.7665 168.335,101.767 156.5,120.5C 153.794,120.688 151.461,121.688 149.5,123.5C 148.833,123.5 148.5,123.833 148.5,124.5C 146.283,128.096 144.283,131.929 142.5,136C 138.064,138.109 133.397,139.276 128.5,139.5C 129.333,128.839 130.166,118.173 131,107.5C 134.078,94.0772 140.912,82.9105 151.5,74C 169.106,60.8622 188.44,50.8622 209.5,44C 243.423,31.1026 278.423,22.7693 314.5,19C 341.93,17.6806 369.264,18.6806 396.5,22C 413.918,24.2157 429.584,30.549 443.5,41C 456.216,51.9076 457.716,64.0742 448,77.5C 441.031,83.4681 434.364,89.8014 428,96.5C 427.333,106.833 427.333,117.167 428,127.5C 436.094,133.802 444.927,138.968 454.5,143C 475.938,149.756 496.938,157.589 517.5,166.5 Z M 379.5,178.5 C 377.528,183.562 375.861,188.562 374.5,193.5C 374.414,188.476 374.414,183.142 374.5,177.5C 375.93,177.579 377.264,177.246 378.5,176.5C 379.298,176.957 379.631,177.624 379.5,178.5 Z M 487.5,347.5 C 487.5,348.167 487.833,348.5 488.5,348.5C 490.347,353.345 493.013,357.678 496.5,361.5C 492.167,362.833 487.833,362.833 483.5,361.5C 483.5,360.167 483.5,358.833 483.5,357.5C 484.254,354.922 484.254,352.256 483.5,349.5C 483.5,349.167 483.5,348.833 483.5,348.5C 484.708,347.766 486.041,347.433 487.5,347.5 Z"/></g>
<g><path style="opacity:1" fill="#397eac" d="M 65.5,60.5 C 65.5,62.1667 65.5,63.8333 65.5,65.5C 61.1667,65.5 56.8333,65.5 52.5,65.5C 52.5,81.5 52.5,97.5 52.5,113.5C 68.6754,113.83 84.6754,113.496 100.5,112.5C 103.324,112.989 104.657,114.656 104.5,117.5C 85.8333,117.5 67.1667,117.5 48.5,117.5C 47.503,98.674 47.1697,79.674 47.5,60.5C 53.5,60.5 59.5,60.5 65.5,60.5 Z"/></g>
<g><path style="opacity:1" fill="#428bba" d="M 65.5,60.5 C 78.8333,60.5 92.1667,60.5 105.5,60.5C 105.5,79.8333 105.5,99.1667 105.5,118.5C 86.326,118.83 67.326,118.497 48.5,117.5C 67.1667,117.5 85.8333,117.5 104.5,117.5C 104.657,114.656 103.324,112.989 100.5,112.5C 100.5,97.1667 100.5,81.8333 100.5,66.5C 89.012,65.5051 77.3453,65.1717 65.5,65.5C 65.5,63.8333 65.5,62.1667 65.5,60.5 Z"/></g>
<g><path style="opacity:1" fill="#035d93" d="M 292.5,62.5 C 337.167,62.5 381.833,62.5 426.5,62.5C 426.5,89.1667 426.5,115.833 426.5,142.5C 395.498,142.333 364.498,142.5 333.5,143C 328.669,156.838 319.002,162.838 304.5,161C 302.695,160.028 301.028,158.861 299.5,157.5C 308.31,156.357 312.977,151.357 313.5,142.5C 306.245,142.813 299.079,142.48 292,141.5C 291.177,115.095 291.343,88.7612 292.5,62.5 Z"/></g>
<g><path style="opacity:1" fill="#6baec0" d="M 65.5,65.5 C 77.3453,65.1717 89.012,65.5051 100.5,66.5C 84.8333,66.5 69.1667,66.5 53.5,66.5C 53.5,81.8333 53.5,97.1667 53.5,112.5C 69.1667,112.5 84.8333,112.5 100.5,112.5C 84.6754,113.496 68.6754,113.83 52.5,113.5C 52.5,97.5 52.5,81.5 52.5,65.5C 56.8333,65.5 61.1667,65.5 65.5,65.5 Z"/></g>
<g><path style="opacity:1" fill="#a2d8d5" d="M 100.5,66.5 C 100.5,81.8333 100.5,97.1667 100.5,112.5C 84.8333,112.5 69.1667,112.5 53.5,112.5C 53.5,97.1667 53.5,81.8333 53.5,66.5C 69.1667,66.5 84.8333,66.5 100.5,66.5 Z"/></g>
<g><path style="opacity:1" fill="#f4f8fa" d="M 325.5,101.5 C 324.684,97.8978 323.351,94.3978 321.5,91C 326.715,83.356 324.882,78.5226 316,76.5C 312.726,76.3006 310.393,77.6339 309,80.5C 307.773,84.5913 308.606,88.0913 311.5,91C 308.502,93.8237 307.168,97.3237 307.5,101.5C 304.448,100.12 302.282,97.7864 301,94.5C 298.05,78.1156 304.884,70.6156 321.5,72C 332.604,77.0472 335.771,85.2138 331,96.5C 329.296,98.3734 327.463,100.04 325.5,101.5 Z"/></g>
<g><path style="opacity:1" fill="#5ca4d3" d="M 515.5,64.5 C 515.5,81.1667 515.5,97.8333 515.5,114.5C 492.5,114.5 469.5,114.5 446.5,114.5C 447.568,113.566 448.901,113.232 450.5,113.5C 453.372,99.8087 456.372,86.142 459.5,72.5C 472.817,71.5008 486.15,71.1675 499.5,71.5C 497.944,78.437 497.111,85.437 497,92.5C 499.512,99.901 502.679,106.901 506.5,113.5C 507.167,96.8333 507.833,80.1667 508.5,63.5C 511.25,61.9215 513.583,62.2549 515.5,64.5 Z M 510.5,68.5 C 511.5,68.5 512.5,68.5 513.5,68.5C 513.5,71.5 513.5,74.5 513.5,77.5C 512.5,77.5 511.5,77.5 510.5,77.5C 510.5,74.5 510.5,71.5 510.5,68.5 Z"/></g>
<g><path style="opacity:0.142" fill="#d2e6f2" d="M 509.5,67.5 C 511.167,67.5 512.833,67.5 514.5,67.5C 514.5,71.1667 514.5,74.8333 514.5,78.5C 512.833,78.5 511.167,78.5 509.5,78.5C 509.5,74.8333 509.5,71.1667 509.5,67.5 Z M 510.5,68.5 C 510.5,71.5 510.5,74.5 510.5,77.5C 511.5,77.5 512.5,77.5 513.5,77.5C 513.5,74.5 513.5,71.5 513.5,68.5C 512.5,68.5 511.5,68.5 510.5,68.5 Z"/></g>
<g><path style="opacity:1" fill="#58a7d8" d="M 325.5,101.5 C 322.88,103.895 319.713,104.895 316,104.5C 314.167,104.333 312.333,104.167 310.5,104C 309.058,103.623 308.058,102.79 307.5,101.5C 307.168,97.3237 308.502,93.8237 311.5,91C 308.606,88.0913 307.773,84.5913 309,80.5C 310.393,77.6339 312.726,76.3006 316,76.5C 324.882,78.5226 326.715,83.356 321.5,91C 323.351,94.3978 324.684,97.8978 325.5,101.5 Z"/></g>
<g><path style="opacity:1" fill="#b6e1eb" d="M 92.5,74.5 C 93.9778,74.238 95.3112,74.5713 96.5,75.5C 95.0022,78.9674 94.0022,82.634 93.5,86.5C 92.5159,83.5719 92.1826,80.5719 92.5,77.5C 90.5,77.5 88.5,77.5 86.5,77.5C 86.5,78.5 86.5,79.5 86.5,80.5C 90.5,80.8333 90.5,81.1667 86.5,81.5C 86.5,82.5 86.5,83.5 86.5,84.5C 87.9778,84.238 89.3112,84.5713 90.5,85.5C 86.2172,86.4922 81.8839,86.8256 77.5,86.5C 77.5,82.8333 77.5,79.1667 77.5,75.5C 79.8211,75.2289 81.8211,75.8955 83.5,77.5C 86.4336,76.0234 89.4336,75.0234 92.5,74.5 Z"/></g>
<g><path style="opacity:1" fill="#9ad3d2" d="M 479.5,104.5 C 478.334,102.834 478.334,101.167 479.5,99.5C 480.833,98.8333 481.833,97.8333 482.5,96.5C 483.689,95.5713 485.022,95.238 486.5,95.5C 486.5,94.1667 486.5,92.8333 486.5,91.5C 487.688,86.4222 486.021,82.2555 481.5,79C 466.272,75.888 460.272,82.0547 463.5,97.5C 464.5,97.5 465.5,97.5 466.5,97.5C 467.701,100.43 469.701,101.096 472.5,99.5C 473.562,100.425 473.562,101.425 472.5,102.5C 466.38,103.226 462.047,106.393 459.5,112C 458.207,112.49 456.873,112.657 455.5,112.5C 457.576,100.452 459.91,88.4518 462.5,76.5C 472.833,76.5 483.167,76.5 493.5,76.5C 491.067,88.4967 488.567,100.497 486,112.5C 484.989,108.769 482.823,106.102 479.5,104.5 Z"/></g>
<g><path style="opacity:1" fill="#38acd4" d="M 486.5,91.5 C 485.417,91.5394 484.417,91.8728 483.5,92.5C 482.716,89.9515 481.549,87.6181 480,85.5C 479.25,86.1258 478.416,86.6258 477.5,87C 473.5,87.3333 469.5,87.6667 465.5,88C 464.903,89.0617 464.57,90.2284 464.5,91.5C 465.204,93.5351 465.871,95.5351 466.5,97.5C 465.5,97.5 464.5,97.5 463.5,97.5C 460.272,82.0547 466.272,75.888 481.5,79C 486.021,82.2555 487.688,86.4222 486.5,91.5 Z"/></g>
<g><path style="opacity:1" fill="#c2e5f8" d="M 66.5,75.5 C 68.1644,76.9488 68.9977,78.9488 69,81.5C 69.2022,79.7444 69.7022,78.0777 70.5,76.5C 72.2189,79.0484 73.5522,78.715 74.5,75.5C 75.2982,79.3326 74.6316,82.9993 72.5,86.5C 71.1667,82.5 69.8333,82.5 68.5,86.5C 66.7765,83.0602 66.1098,79.3935 66.5,75.5 Z"/></g>
<g><path style="opacity:1" fill="#2a385a" d="M 264.5,138.5 C 262.517,139.471 260.517,140.471 258.5,141.5C 258.107,139.716 257.441,138.05 256.5,136.5C 256.305,134.097 255.138,132.43 253,131.5C 232.387,140.047 212.22,139.047 192.5,128.5C 189.155,136.345 183.155,139.845 174.5,139C 177.021,147.277 178.021,155.777 177.5,164.5C 175.327,158.158 171.66,152.824 166.5,148.5C 165.7,129.933 173.033,115.433 188.5,105C 194.453,101.081 200.786,98.2477 207.5,96.5C 217.509,94.4954 226.509,90.3287 234.5,84C 245.602,80.0181 251.435,83.8514 252,95.5C 253.579,93.9588 255.413,92.7922 257.5,92C 267.653,89.8214 274.153,93.6547 277,103.5C 277.991,111.881 276.657,119.881 273,127.5C 269.927,131.061 267.094,134.728 264.5,138.5 Z"/></g>
<g><path style="opacity:1" fill="#69b0de" d="M 340.5,81.5 C 366.5,81.5 392.5,81.5 418.5,81.5C 418.5,82.5 418.5,83.5 418.5,84.5C 392.5,84.5 366.5,84.5 340.5,84.5C 340.5,83.5 340.5,82.5 340.5,81.5 Z"/></g>
<g><path style="opacity:1" fill="#5785a8" d="M 486.5,91.5 C 486.5,92.8333 486.5,94.1667 486.5,95.5C 485.022,95.238 483.689,95.5713 482.5,96.5C 481.833,97.8333 480.833,98.8333 479.5,99.5C 478.334,101.167 478.334,102.834 479.5,104.5C 476.477,106.161 474.143,105.495 472.5,102.5C 473.562,101.425 473.562,100.425 472.5,99.5C 469.701,101.096 467.701,100.43 466.5,97.5C 465.871,95.5351 465.204,93.5351 464.5,91.5C 464.57,90.2284 464.903,89.0617 465.5,88C 469.5,87.6667 473.5,87.3333 477.5,87C 478.416,86.6258 479.25,86.1258 480,85.5C 481.549,87.6181 482.716,89.9515 483.5,92.5C 484.417,91.8728 485.417,91.5394 486.5,91.5 Z"/></g>
<g><path style="opacity:1" fill="#67add9" d="M 576.5,99.5 C 558.577,100.486 540.577,100.819 522.5,100.5C 522.737,99.209 522.404,98.209 521.5,97.5C 521.02,94.3148 521.686,91.4815 523.5,89C 540.833,88.3333 558.167,88.3333 575.5,89C 577.668,92.3407 578.002,95.8407 576.5,99.5 Z M 527.5,91.5 C 530.5,91.5 533.5,91.5 536.5,91.5C 536.5,93.8333 536.5,96.1667 536.5,98.5C 533.5,98.5 530.5,98.5 527.5,98.5C 527.5,96.1667 527.5,93.8333 527.5,91.5 Z"/></g>
<g><path style="opacity:1" fill="#c1e5f7" d="M 89.5,91.5 C 91.604,91.2011 93.604,91.5344 95.5,92.5C 94.675,93.3857 93.675,93.719 92.5,93.5C 92.5,94.5 92.5,95.5 92.5,96.5C 96.5,97.1667 96.5,97.8333 92.5,98.5C 92.5,99.5 92.5,100.5 92.5,101.5C 93.9778,101.238 95.3112,101.571 96.5,102.5C 94.4902,104.171 92.1569,104.838 89.5,104.5C 89.5,100.167 89.5,95.8333 89.5,91.5 Z"/></g>
<g><path style="opacity:1" fill="#bde3f2" d="M 70.5,91.5 C 74.5308,91.0335 76.5308,92.8668 76.5,97C 76.466,100.493 74.966,102.993 72,104.5C 70.7387,104.241 69.7387,103.574 69,102.5C 68.013,98.5252 68.513,94.8585 70.5,91.5 Z"/></g>
<g><path style="opacity:1" fill="#c2e5f8" d="M 63.5,90.5 C 64.5,90.5 65.5,90.5 66.5,90.5C 66.5,94.8333 66.5,99.1667 66.5,103.5C 65.5,103.5 64.5,103.5 63.5,103.5C 63.0583,98.3055 62.0583,98.3055 60.5,103.5C 59.1667,99.5 59.1667,95.5 60.5,91.5C 62.3872,97.9952 63.3872,97.6619 63.5,90.5 Z"/></g>
<g><path style="opacity:1" fill="#182a40" d="M 207.5,96.5 C 200.786,98.2477 194.453,101.081 188.5,105C 173.033,115.433 165.7,129.933 166.5,148.5C 165.448,148.351 164.448,148.517 163.5,149C 173.341,166.2 177.341,184.7 175.5,204.5C 174.041,204.433 172.708,204.766 171.5,205.5C 154.465,205.995 144.298,197.662 141,180.5C 139.594,171.121 141.76,162.788 147.5,155.5C 148.833,154.067 150.333,152.733 152,151.5C 150.892,140.811 152.392,130.478 156.5,120.5C 168.335,101.767 185.335,93.7665 207.5,96.5 Z"/></g>
<g><path style="opacity:0.89" fill="#7dc2ed" d="M 417.5,98.5 C 391.661,98.8311 365.995,98.4978 340.5,97.5C 366.336,96.1708 392.336,96.1708 418.5,97.5C 418.376,98.1067 418.043,98.44 417.5,98.5 Z"/></g>
<g><path style="opacity:1" fill="#c2e5f8" d="M 77.5,91.5 C 78.8333,91.5 80.1667,91.5 81.5,91.5C 82.6144,96.6294 83.281,96.6294 83.5,91.5C 84.8333,91.5 86.1667,91.5 87.5,91.5C 87.8256,95.8839 87.4922,100.217 86.5,104.5C 85.6858,102.234 85.1858,99.9005 85,97.5C 84.2607,99.2205 83.4274,100.887 82.5,102.5C 81.8076,101.975 81.3076,101.308 81,100.5C 80.51,101.793 80.3433,103.127 80.5,104.5C 79.5,104.5 78.5,104.5 77.5,104.5C 77.5,100.167 77.5,95.8333 77.5,91.5 Z"/></g>
<g><path style="opacity:1" fill="#297cb0" d="M 340.5,97.5 C 365.995,98.4978 391.661,98.8311 417.5,98.5C 391.664,99.8292 365.664,99.8292 339.5,98.5C 339.624,97.8933 339.957,97.56 340.5,97.5 Z"/></g>
<g><path style="opacity:1" fill="#91ccf2" d="M 515.5,64.5 C 516.167,76.3401 516.833,88.3401 517.5,100.5C 519.483,100.185 520.816,99.1852 521.5,97.5C 522.404,98.209 522.737,99.209 522.5,100.5C 540.577,100.819 558.577,100.486 576.5,99.5C 581.854,98.9906 584.187,101.491 583.5,107C 583.42,108.894 583.087,110.727 582.5,112.5C 583.243,113.182 583.909,113.849 584.5,114.5C 561.5,114.5 538.5,114.5 515.5,114.5C 515.5,97.8333 515.5,81.1667 515.5,64.5 Z M 521.5,103.5 C 530.5,103.5 539.5,103.5 548.5,103.5C 548.5,106.167 548.5,108.833 548.5,111.5C 539.5,111.5 530.5,111.5 521.5,111.5C 521.5,108.833 521.5,106.167 521.5,103.5 Z"/></g>
<g><path style="opacity:0.905" fill="#79beeb" d="M 299.5,111.5 C 339.312,111.006 378.978,111.506 418.5,113C 398.667,113.167 378.833,113.333 359,113.5C 338.822,113.5 318.989,112.833 299.5,111.5 Z"/></g>
<g><path style="opacity:1" fill="#1c7bb5" d="M 446.5,114.5 C 469.5,114.5 492.5,114.5 515.5,114.5C 538.5,114.5 561.5,114.5 584.5,114.5C 585.833,117.167 585.833,119.833 584.5,122.5C 561.669,121.833 538.669,121.5 515.5,121.5C 492.157,121.5 469.157,122.167 446.5,123.5C 445.167,120.5 445.167,117.5 446.5,114.5 Z"/></g>
<g><path style="opacity:1" fill="#2f3c5b" d="M 156.5,120.5 C 152.392,130.478 150.892,140.811 152,151.5C 150.333,152.733 148.833,154.067 147.5,155.5C 144.562,145.031 144.895,134.698 148.5,124.5C 149.167,124.5 149.5,124.167 149.5,123.5C 151.461,121.688 153.794,120.688 156.5,120.5 Z"/></g>
<g><path style="opacity:1" fill="#3b7cb1" d="M 584.5,122.5 C 584.461,123.583 584.127,124.583 583.5,125.5C 538.17,126.667 492.837,126.833 447.5,126C 446.748,125.329 446.414,124.496 446.5,123.5C 469.157,122.167 492.157,121.5 515.5,121.5C 538.669,121.5 561.669,121.833 584.5,122.5 Z"/></g>
<g><path style="opacity:1" fill="#4489b7" d="M 47.5,124.5 C 73.1688,124.333 98.8355,124.5 124.5,125C 125.492,142.423 125.825,159.923 125.5,177.5C 99.4915,177.833 73.4915,177.5 47.5,176.5C 46.1679,159.137 46.1679,141.804 47.5,124.5 Z"/></g>
<g><path style="opacity:0.597" fill="#84c8f3" d="M 300.5,127.5 C 339.506,127.167 378.506,127.5 417.5,128.5C 398,128.833 378.5,129.167 359,129.5C 339.155,129.5 319.655,128.833 300.5,127.5 Z"/></g>
<g><path style="opacity:1" fill="#ef9d81" d="M 256.5,136.5 C 255.85,136.196 255.183,135.863 254.5,135.5C 251.495,137.671 248.161,139.171 244.5,140C 238.497,140.944 232.497,141.777 226.5,142.5C 214.382,142.681 203.382,139.348 193.5,132.5C 190.548,139.053 185.714,141.719 179,140.5C 179.727,147.262 180.56,153.929 181.5,160.5C 180.284,163.866 179.284,167.199 178.5,170.5C 178.167,168.5 177.833,166.5 177.5,164.5C 178.021,155.777 177.021,147.277 174.5,139C 183.155,139.845 189.155,136.345 192.5,128.5C 212.22,139.047 232.387,140.047 253,131.5C 255.138,132.43 256.305,134.097 256.5,136.5 Z"/></g>
<g><path style="opacity:1" fill="#86c9f5" d="M 111.5,172.5 C 110.189,167.856 107.189,164.856 102.5,163.5C 102.18,158.746 104.513,155.413 109.5,153.5C 110.429,152.311 110.762,150.978 110.5,149.5C 112.742,143.885 111.409,139.385 106.5,136C 101.25,135.122 96.0833,133.956 91,132.5C 89.3058,134.429 87.1391,135.429 84.5,135.5C 83.5755,139.884 84.9088,143.218 88.5,145.5C 87.7629,147.305 86.7629,148.971 85.5,150.5C 88.1667,155.167 91.8333,158.833 96.5,161.5C 96.1373,162.183 95.8039,162.85 95.5,163.5C 90.7379,164.751 86.9046,167.418 84,171.5C 81.6332,166.733 77.7999,164.066 72.5,163.5C 71.4376,162.425 71.4376,161.425 72.5,160.5C 75.2496,162.078 77.5829,161.745 79.5,159.5C 80.8221,159.67 81.9887,159.337 83,158.5C 87.2794,139.773 80.4461,133.273 62.5,139C 58.9609,142.387 57.6276,146.553 58.5,151.5C 58.369,152.239 58.5357,152.906 59,153.5C 61.6277,155.126 63.961,157.126 66,159.5C 66.6128,161.495 66.1128,163.162 64.5,164.5C 60.7404,165.926 58.407,168.593 57.5,172.5C 55.8333,172.5 54.1667,172.5 52.5,172.5C 52.5,158.5 52.5,144.5 52.5,130.5C 75.1667,130.5 97.8333,130.5 120.5,130.5C 120.5,144.5 120.5,158.5 120.5,172.5C 117.5,172.5 114.5,172.5 111.5,172.5 Z"/></g>
<g><path style="opacity:1" fill="#fca587" d="M 256.5,136.5 C 257.441,138.05 258.107,139.716 258.5,141.5C 258.5,141.833 258.5,142.167 258.5,142.5C 252.988,142.125 247.321,142.625 241.5,144C 239.277,147.385 237.277,150.885 235.5,154.5C 234.532,156.607 234.198,158.941 234.5,161.5C 228.724,159.873 223.224,160.539 218,163.5C 214.769,155.332 208.935,150.665 200.5,149.5C 191.924,149.431 185.59,153.098 181.5,160.5C 180.56,153.929 179.727,147.262 179,140.5C 185.714,141.719 190.548,139.053 193.5,132.5C 203.382,139.348 214.382,142.681 226.5,142.5C 232.497,141.777 238.497,140.944 244.5,140C 248.161,139.171 251.495,137.671 254.5,135.5C 255.183,135.863 255.85,136.196 256.5,136.5 Z"/></g>
<g><path style="opacity:1" fill="#3ca8f5" d="M 110.5,149.5 C 108.833,149.5 107.167,149.5 105.5,149.5C 106.056,145.807 104.722,143.14 101.5,141.5C 96.9581,142.698 92.6248,144.031 88.5,145.5C 84.9088,143.218 83.5755,139.884 84.5,135.5C 87.1391,135.429 89.3058,134.429 91,132.5C 96.0833,133.956 101.25,135.122 106.5,136C 111.409,139.385 112.742,143.885 110.5,149.5 Z"/></g>
<g><path style="opacity:1" fill="#3da9f5" d="M 79.5,159.5 C 81.7413,155.868 82.7413,151.868 82.5,147.5C 79.4116,146.932 76.4116,146.932 73.5,147.5C 70.8916,147.077 68.5583,146.077 66.5,144.5C 64.5244,146.287 63.1911,148.454 62.5,151C 61.0406,150.645 59.7072,150.811 58.5,151.5C 57.6276,146.553 58.9609,142.387 62.5,139C 80.4461,133.273 87.2794,139.773 83,158.5C 81.9887,159.337 80.8221,159.67 79.5,159.5 Z"/></g>
<g><path style="opacity:1" fill="#182a3f" d="M 264.5,138.5 C 268.105,138.799 271.439,139.965 274.5,142C 283.074,150.056 286.241,159.89 284,171.5C 281.377,184.383 273.543,191.049 260.5,191.5C 261.969,186.284 262.635,180.95 262.5,175.5C 267.445,170.155 269.279,163.821 268,156.5C 265.536,151.201 262.369,146.534 258.5,142.5C 258.5,142.167 258.5,141.833 258.5,141.5C 260.517,140.471 262.517,139.471 264.5,138.5 Z"/></g>
<g><path style="opacity:1" fill="#f8a386" d="M 251.5,144.5 C 255.063,144.683 258.063,146.017 260.5,148.5C 262.16,156.392 262.827,164.392 262.5,172.5C 261.833,173.5 261.167,174.5 260.5,175.5C 244.362,179.71 236.362,173.376 236.5,156.5C 237.169,153.151 238.836,150.484 241.5,148.5C 245.039,152.165 249.372,153.332 254.5,152C 256.147,148.471 255.147,145.971 251.5,144.5 Z"/></g>
<g><path style="opacity:1" fill="#5288cc" d="M 79.5,159.5 C 77.5829,161.745 75.2496,162.078 72.5,160.5C 71.4376,161.425 71.4376,162.425 72.5,163.5C 70.2009,165.769 67.5342,166.102 64.5,164.5C 66.1128,163.162 66.6128,161.495 66,159.5C 63.961,157.126 61.6277,155.126 59,153.5C 58.5357,152.906 58.369,152.239 58.5,151.5C 59.7072,150.811 61.0406,150.645 62.5,151C 63.1911,148.454 64.5244,146.287 66.5,144.5C 68.5583,146.077 70.8916,147.077 73.5,147.5C 76.4116,146.932 79.4116,146.932 82.5,147.5C 82.7413,151.868 81.7413,155.868 79.5,159.5 Z"/></g>
<g><path style="opacity:1" fill="#548acf" d="M 110.5,149.5 C 110.762,150.978 110.429,152.311 109.5,153.5C 104.513,155.413 102.18,158.746 102.5,163.5C 99.882,168.685 97.5486,168.685 95.5,163.5C 95.8039,162.85 96.1373,162.183 96.5,161.5C 91.8333,158.833 88.1667,155.167 85.5,150.5C 86.7629,148.971 87.7629,147.305 88.5,145.5C 92.6248,144.031 96.9581,142.698 101.5,141.5C 104.722,143.14 106.056,145.807 105.5,149.5C 107.167,149.5 108.833,149.5 110.5,149.5 Z"/></g>
<g><path style="opacity:1" fill="#207297" d="M 166.5,148.5 C 171.66,152.824 175.327,158.158 177.5,164.5C 177.833,166.5 178.167,168.5 178.5,170.5C 178.927,173.01 179.593,175.343 180.5,177.5C 181.79,184.826 181.79,192.159 180.5,199.5C 179.444,202.331 179.444,205.331 180.5,208.5C 180.122,210.135 179.456,211.635 178.5,213C 179.148,214.44 179.481,215.94 179.5,217.5C 185.776,216.434 191.776,214.767 197.5,212.5C 201.949,211.971 206.282,210.971 210.5,209.5C 210.5,210.167 210.5,210.833 210.5,211.5C 207.254,212.054 204.254,213.054 201.5,214.5C 194.092,216.186 186.758,218.186 179.5,220.5C 177.958,217.015 175.791,214.015 173,211.5C 171.872,209.655 171.372,207.655 171.5,205.5C 172.708,204.766 174.041,204.433 175.5,204.5C 177.341,184.7 173.341,166.2 163.5,149C 164.448,148.517 165.448,148.351 166.5,148.5 Z"/></g>
<g><path style="opacity:1" fill="#223146" d="M 260.5,148.5 C 267.658,155.945 268.325,163.945 262.5,172.5C 262.827,164.392 262.16,156.392 260.5,148.5 Z"/></g>
<g><path style="opacity:1" fill="#88caf4" d="M 559.5,156.5 C 557.528,178.269 556.861,200.269 557.5,222.5C 551.833,222.5 546.167,222.5 540.5,222.5C 540.83,204.326 540.497,186.326 539.5,168.5C 540.223,166.836 539.89,165.169 538.5,163.5C 540.171,160.392 541.171,156.892 541.5,153C 546.906,150.916 552.239,151.082 557.5,153.5C 558.176,154.602 558.842,155.602 559.5,156.5 Z"/></g>
<g><path style="opacity:1" fill="#54a3d3" d="M 577.5,157.5 C 577.5,179.167 577.5,200.833 577.5,222.5C 570.833,222.5 564.167,222.5 557.5,222.5C 556.861,200.269 557.528,178.269 559.5,156.5C 565.738,153.819 571.738,154.152 577.5,157.5 Z M 574.5,172.5 C 572.598,173.511 570.598,173.678 568.5,173C 565.961,171.279 563.628,169.446 561.5,167.5C 561.286,165.856 561.62,164.356 562.5,163C 566.486,162.501 570.486,162.334 574.5,162.5C 574.5,165.833 574.5,169.167 574.5,172.5 Z"/></g>
<g><path style="opacity:1" fill="#3b7a97" d="M 235.5,154.5 C 235.328,155.492 235.662,156.158 236.5,156.5C 236.362,173.376 244.362,179.71 260.5,175.5C 260.5,175.833 260.5,176.167 260.5,176.5C 251.386,181.659 243.553,179.992 237,171.5C 236.131,168.67 234.964,166.003 233.5,163.5C 228.723,162.067 224.057,162.401 219.5,164.5C 218.273,183.252 208.607,190.752 190.5,187C 186.284,183.934 182.951,180.767 180.5,177.5C 179.593,175.343 178.927,173.01 178.5,170.5C 179.284,167.199 180.284,163.866 181.5,160.5C 185.59,153.098 191.924,149.431 200.5,149.5C 208.935,150.665 214.769,155.332 218,163.5C 223.224,160.539 228.724,159.873 234.5,161.5C 234.198,158.941 234.532,156.607 235.5,154.5 Z"/></g>
<g><path style="opacity:1" fill="#faa487" d="M 195.5,152.5 C 193.016,154.545 192.016,157.212 192.5,160.5C 198.347,161.003 203.014,159.003 206.5,154.5C 211.221,156.215 214.388,159.548 216,164.5C 217.272,180.788 209.772,187.955 193.5,186C 184.053,181.945 180.22,174.778 182,164.5C 184.191,157.805 188.691,153.805 195.5,152.5 Z"/></g>
<g><path style="opacity:1" fill="#2f3b5d" d="M 206.5,154.5 C 203.014,159.003 198.347,161.003 192.5,160.5C 192.016,157.212 193.016,154.545 195.5,152.5C 199.555,151.111 203.221,151.778 206.5,154.5 Z"/></g>
<g><path style="opacity:1" fill="#544126" d="M 245.5,160.5 C 247.39,160.297 248.89,160.963 250,162.5C 250.769,165.099 250.602,167.599 249.5,170C 247.567,170.783 246.067,170.283 245,168.5C 244.278,165.739 244.445,163.073 245.5,160.5 Z"/></g>
<g><path style="opacity:1" fill="#1b6c8e" d="M 258.5,142.5 C 262.369,146.534 265.536,151.201 268,156.5C 269.279,163.821 267.445,170.155 262.5,175.5C 261.833,175.833 261.167,176.167 260.5,176.5C 260.5,176.167 260.5,175.833 260.5,175.5C 261.167,174.5 261.833,173.5 262.5,172.5C 268.325,163.945 267.658,155.945 260.5,148.5C 258.063,146.017 255.063,144.683 251.5,144.5C 247.349,144.099 244.015,145.433 241.5,148.5C 238.836,150.484 237.169,153.151 236.5,156.5C 235.662,156.158 235.328,155.492 235.5,154.5C 237.277,150.885 239.277,147.385 241.5,144C 247.321,142.625 252.988,142.125 258.5,142.5 Z"/></g>
<g><path style="opacity:1" fill="#323c5c" d="M 251.5,144.5 C 255.147,145.971 256.147,148.471 254.5,152C 249.372,153.332 245.039,152.165 241.5,148.5C 244.015,145.433 247.349,144.099 251.5,144.5 Z"/></g>
<g><path style="opacity:1" fill="#f3f9fd" d="M 542.5,160.5 C 547.167,160.5 551.833,160.5 556.5,160.5C 556.5,163.833 556.5,167.167 556.5,170.5C 551.833,170.5 547.167,170.5 542.5,170.5C 542.5,167.167 542.5,163.833 542.5,160.5 Z"/></g>
<g><path style="opacity:1" fill="#faa487" d="M 260.5,176.5 C 261.167,176.167 261.833,175.833 262.5,175.5C 262.635,180.95 261.969,186.284 260.5,191.5C 255.563,204.771 246.229,213.105 232.5,216.5C 230.621,217.341 228.621,217.675 226.5,217.5C 226.438,224.724 229.438,230.057 235.5,233.5C 234.504,233.414 233.671,233.748 233,234.5C 228.171,243.496 220.671,246.996 210.5,245C 203.013,243.953 198.68,239.786 197.5,232.5C 198.925,231.078 199.925,229.411 200.5,227.5C 202.571,223.273 202.905,218.94 201.5,214.5C 204.254,213.054 207.254,212.054 210.5,211.5C 211.261,212.391 212.261,213.058 213.5,213.5C 218.922,212.311 224.256,210.811 229.5,209C 230.833,207 230.833,205 229.5,203C 223.324,202.708 217.324,203.708 211.5,206C 210.663,207.011 210.33,208.178 210.5,209.5C 206.282,210.971 201.949,211.971 197.5,212.5C 193.155,210.993 189.155,208.827 185.5,206C 183.21,204.223 181.543,202.056 180.5,199.5C 181.79,192.159 181.79,184.826 180.5,177.5C 182.951,180.767 186.284,183.934 190.5,187C 208.607,190.752 218.273,183.252 219.5,164.5C 224.057,162.401 228.723,162.067 233.5,163.5C 234.964,166.003 236.131,168.67 237,171.5C 243.553,179.992 251.386,181.659 260.5,176.5 Z"/></g>
<g><path style="opacity:1" fill="#58a4d3" d="M 538.5,163.5 C 539.89,165.169 540.223,166.836 539.5,168.5C 535.578,175.342 531.912,182.342 528.5,189.5C 522.557,200.386 516.891,211.386 511.5,222.5C 514.5,222.5 517.5,222.5 520.5,222.5C 527.167,222.5 533.833,222.5 540.5,222.5C 493.892,223.618 447.226,223.618 400.5,222.5C 405.833,222.5 411.167,222.5 416.5,222.5C 418.167,222.5 419.833,222.5 421.5,222.5C 431.167,222.5 440.833,222.5 450.5,222.5C 462.833,222.5 475.167,222.5 487.5,222.5C 487.833,222.5 488.167,222.5 488.5,222.5C 492.846,222.666 497.179,222.499 501.5,222C 498,219.666 495,216.832 492.5,213.5C 500.037,197.427 508.37,181.761 517.5,166.5C 518.973,163.553 520.473,160.553 522,157.5C 528.275,157.041 533.775,159.041 538.5,163.5 Z"/></g>
<g><path style="opacity:1" fill="#f8fbfc" d="M 524.5,161.5 C 528.423,162.795 532.09,164.628 535.5,167C 532.62,171.258 530.12,175.758 528,180.5C 523.567,181.204 520.067,179.538 517.5,175.5C 519.86,170.78 522.193,166.114 524.5,161.5 Z"/></g>
<g><path style="opacity:1" fill="#584328" d="M 202.5,167.5 C 207.151,168.174 208.651,170.841 207,175.5C 203.002,178.566 200.836,177.399 200.5,172C 200.519,170.167 201.185,168.667 202.5,167.5 Z"/></g>
<g><path style="opacity:0.822" fill="#fbfcfd" d="M 561.5,167.5 C 563.628,169.446 565.961,171.279 568.5,173C 570.598,173.678 572.598,173.511 574.5,172.5C 574.5,178.5 574.5,184.5 574.5,190.5C 570.167,190.5 565.833,190.5 561.5,190.5C 561.5,182.833 561.5,175.167 561.5,167.5 Z"/></g>
<g><path style="opacity:1" fill="#4ca0f0" d="M 72.5,163.5 C 77.7999,164.066 81.6332,166.733 84,171.5C 86.9046,167.418 90.7379,164.751 95.5,163.5C 97.5486,168.685 99.882,168.685 102.5,163.5C 107.189,164.856 110.189,167.856 111.5,172.5C 93.5,172.5 75.5,172.5 57.5,172.5C 58.407,168.593 60.7404,165.926 64.5,164.5C 67.5342,166.102 70.2009,165.769 72.5,163.5 Z"/></g>
<g><path style="opacity:0.608" fill="#ddf0fe" d="M 539.5,168.5 C 540.497,186.326 540.83,204.326 540.5,222.5C 533.833,222.5 527.167,222.5 520.5,222.5C 524.938,219.566 528.938,216.066 532.5,212C 531.367,208.222 529.367,205.055 526.5,202.5C 527.656,198.877 528.656,195.211 529.5,191.5C 529.457,190.584 529.124,189.917 528.5,189.5C 531.912,182.342 535.578,175.342 539.5,168.5 Z"/></g>
<g><path style="opacity:1" fill="#19a194" d="M 401.5,206.5 C 392.5,206.5 383.5,206.5 374.5,206.5C 370.577,202.049 370.577,197.715 374.5,193.5C 375.861,188.562 377.528,183.562 379.5,178.5C 381.704,175.803 384.537,174.137 388,173.5C 395.888,175.75 399.555,181.083 399,189.5C 400.726,188.424 402.559,188.257 404.5,189C 407.226,195.365 406.226,201.198 401.5,206.5 Z"/></g>
<g><path style="opacity:0.962" fill="#ddf0fe" d="M 103.5,233.5 C 100.273,233.676 97.2727,234.343 94.5,235.5C 87.7691,236.717 83.2691,240.717 81,247.5C 79.0279,255.749 77.5279,264.083 76.5,272.5C 75.7677,271.192 74.9344,269.858 74,268.5C 73.6667,268.833 73.3333,269.167 73,269.5C 72.0752,273.903 70.9086,278.236 69.5,282.5C 72.0442,285.76 72.8776,289.426 72,293.5C 71,292.167 70,290.833 69,289.5C 68.9558,291.76 69.7892,293.76 71.5,295.5C 71.2907,296.086 70.9574,296.586 70.5,297C 72.8123,300.325 72.979,303.825 71,307.5C 69.1434,309.631 66.9768,310.131 64.5,309C 62.3825,310.049 60.7158,311.549 59.5,313.5C 55.6286,313.185 51.9619,313.518 48.5,314.5C 48.5,314.833 48.5,315.167 48.5,315.5C 43.7374,314.609 39.4041,315.776 35.5,319C 35.7284,319.399 36.0618,319.565 36.5,319.5C 33.1949,320.805 30.8615,323.138 29.5,326.5C 29.5,327.167 29.1667,327.5 28.5,327.5C 27.5423,326.038 26.3756,324.705 25,323.5C 13.1565,285.909 15.4898,249.243 32,213.5C 39.2187,200.615 49.3854,190.781 62.5,184C 71.1725,183.868 79.5058,185.534 87.5,189C 92.4347,193.932 96.6014,199.432 100,205.5C 102.535,214.67 103.701,224.003 103.5,233.5 Z M 69.5,259.5 C 70.7125,260.497 70.5458,261.497 69,262.5C 68.5304,261.423 68.6971,260.423 69.5,259.5 Z M 57.5,273.5 C 59.2726,274.314 59.7726,275.648 59,277.5C 58.2086,276.255 57.7086,274.922 57.5,273.5 Z M 59.5,285.5 C 59.5979,287.553 58.9313,289.22 57.5,290.5C 57.4021,288.447 58.0687,286.78 59.5,285.5 Z M 61.5,290.5 C 67.5261,292.208 69.6928,296.208 68,302.5C 67.3333,303.167 66.6667,303.833 66,304.5C 62.3454,300.375 60.8454,295.708 61.5,290.5 Z M 57.5,296.5 C 58.8478,297.527 59.3478,298.86 59,300.5C 57.8118,299.437 57.3118,298.103 57.5,296.5 Z"/></g>
<g><path style="opacity:1" fill="#5c442a" d="M 217.5,185.5 C 222.659,187.183 227.992,187.849 233.5,187.5C 232.308,197.513 227.475,199.846 219,194.5C 217.711,191.649 217.211,188.649 217.5,185.5 Z"/></g>
<g><path style="opacity:0.824" fill="#7db7da" d="M 577.5,157.5 C 578.332,178.663 578.832,199.996 579,221.5C 582.057,222.451 585.223,222.784 588.5,222.5C 588.81,225.713 588.477,228.713 587.5,231.5C 587.5,230.833 587.5,230.167 587.5,229.5C 587.5,227.5 587.5,225.5 587.5,223.5C 584.061,223.747 580.728,223.414 577.5,222.5C 577.5,200.833 577.5,179.167 577.5,157.5 Z"/></g>
<g><path style="opacity:1" fill="#ea6e65" d="M 219.5,190.5 C 223.54,190.19 226.873,191.524 229.5,194.5C 226.097,197.199 222.93,196.866 220,193.5C 219.517,192.552 219.351,191.552 219.5,190.5 Z"/></g>
<g><path style="opacity:1" fill="#56a5d6" d="M 480.5,210.5 C 461.091,210.82 441.757,210.487 422.5,209.5C 422.216,206.223 422.549,203.057 423.5,200C 442.497,199.5 461.497,199.333 480.5,199.5C 480.5,203.167 480.5,206.833 480.5,210.5 Z"/></g>
<g><path style="opacity:0.999" fill="#daecfa" d="M 180.5,199.5 C 181.543,202.056 183.21,204.223 185.5,206C 189.155,208.827 193.155,210.993 197.5,212.5C 191.776,214.767 185.776,216.434 179.5,217.5C 179.481,215.94 179.148,214.44 178.5,213C 179.456,211.635 180.122,210.135 180.5,208.5C 179.444,205.331 179.444,202.331 180.5,199.5 Z"/></g>
<g><path style="opacity:1" fill="#f2f7fa" d="M 427.5,201.5 C 431.167,201.5 434.833,201.5 438.5,201.5C 438.5,204.167 438.5,206.833 438.5,209.5C 434.833,209.5 431.167,209.5 427.5,209.5C 427.5,206.833 427.5,204.167 427.5,201.5 Z"/></g>
<g><path style="opacity:1" fill="#1c2a3d" d="M 210.5,211.5 C 210.5,210.833 210.5,210.167 210.5,209.5C 210.33,208.178 210.663,207.011 211.5,206C 217.324,203.708 223.324,202.708 229.5,203C 230.833,205 230.833,207 229.5,209C 224.256,210.811 218.922,212.311 213.5,213.5C 212.261,213.058 211.261,212.391 210.5,211.5 Z"/></g>
<g><path style="opacity:1" fill="#56a7d8" d="M 374.5,206.5 C 383.5,206.5 392.5,206.5 401.5,206.5C 402.748,207.334 403.415,208.667 403.5,210.5C 402.906,214.613 401.906,218.613 400.5,222.5C 392.5,222.5 384.5,222.5 376.5,222.5C 374.479,217.898 373.145,213.064 372.5,208C 372.836,206.97 373.503,206.47 374.5,206.5 Z"/></g>
<g><path style="opacity:0.744" fill="#dbeefe" d="M 163.5,227.5 C 156.204,228.466 148.87,229.133 141.5,229.5C 143.294,215.513 150.961,210.013 164.5,213C 167.394,215.909 168.227,219.409 167,223.5C 166.31,225.35 165.144,226.684 163.5,227.5 Z"/></g>
<g><path style="opacity:1" fill="#87c9f3" d="M 422.5,209.5 C 441.757,210.487 461.091,210.82 480.5,210.5C 482.604,210.201 484.604,210.534 486.5,211.5C 487.426,215.094 487.759,218.76 487.5,222.5C 475.167,222.5 462.833,222.5 450.5,222.5C 450.5,219.5 450.5,216.5 450.5,213.5C 440.833,213.5 431.167,213.5 421.5,213.5C 421.5,216.5 421.5,219.5 421.5,222.5C 419.833,222.5 418.167,222.5 416.5,222.5C 416.335,219.15 416.502,215.817 417,212.5C 418.719,211.131 420.552,210.131 422.5,209.5 Z"/></g>
<g><path style="opacity:1" fill="#fbfcfd" d="M 450.5,222.5 C 440.833,222.5 431.167,222.5 421.5,222.5C 421.5,219.5 421.5,216.5 421.5,213.5C 431.167,213.5 440.833,213.5 450.5,213.5C 450.5,216.5 450.5,219.5 450.5,222.5 Z"/></g>
<g><path style="opacity:1" fill="#1d7cb6" d="M 376.5,222.5 C 384.5,222.5 392.5,222.5 400.5,222.5C 447.226,223.618 493.892,223.618 540.5,222.5C 546.167,222.5 551.833,222.5 557.5,222.5C 564.167,222.5 570.833,222.5 577.5,222.5C 580.728,223.414 584.061,223.747 587.5,223.5C 587.5,225.5 587.5,227.5 587.5,229.5C 513.492,228.836 439.826,229.503 366.5,231.5C 365.183,228.77 365.183,225.937 366.5,223C 369.817,222.502 373.15,222.335 376.5,222.5 Z"/></g>
<g><path style="opacity:1" fill="#0a5d93" d="M 163.5,227.5 C 175.833,227.5 188.167,227.5 200.5,227.5C 199.925,229.411 198.925,231.078 197.5,232.5C 187.031,233.431 177.698,237.098 169.5,243.5C 142.96,258.374 124.293,280.041 113.5,308.5C 112.341,296.678 111.508,284.678 111,272.5C 110.423,260.923 107.089,250.257 101,240.5C 99.2419,238.235 97.0752,236.568 94.5,235.5C 97.2727,234.343 100.273,233.676 103.5,233.5C 116.076,231.508 128.743,230.175 141.5,229.5C 148.87,229.133 156.204,228.466 163.5,227.5 Z"/></g>
<g><path style="opacity:1" fill="#096ca7" d="M 587.5,229.5 C 587.5,230.167 587.5,230.833 587.5,231.5C 587.737,232.791 587.404,233.791 586.5,234.5C 513.167,234.5 439.833,234.5 366.5,234.5C 366.5,233.5 366.5,232.5 366.5,231.5C 439.826,229.503 513.492,228.836 587.5,229.5 Z"/></g>
<g><path style="opacity:1" fill="#cf722e" d="M 197.5,232.5 C 198.68,239.786 203.013,243.953 210.5,245C 220.671,246.996 228.171,243.496 233,234.5C 233.671,233.748 234.504,233.414 235.5,233.5C 238.682,234.594 241.682,235.928 244.5,237.5C 250.743,240.283 257.077,243.117 263.5,246C 270.402,251.632 274.902,258.798 277,267.5C 278.923,281.297 282.423,294.63 287.5,307.5C 283.406,316.687 279.072,325.687 274.5,334.5C 263.703,324.687 257.537,312.354 256,297.5C 253.258,302.977 251.092,308.644 249.5,314.5C 247.771,318.021 246.438,321.687 245.5,325.5C 244.85,325.804 244.183,326.137 243.5,326.5C 234.977,321.005 226.977,321.672 219.5,328.5C 221.882,331.793 222.882,335.46 222.5,339.5C 198.787,350.845 173.787,356.011 147.5,355C 129.312,351.478 120.979,340.478 122.5,322C 122.966,306.599 127.466,292.432 136,279.5C 145.959,266.374 157.126,254.374 169.5,243.5C 177.698,237.098 187.031,233.431 197.5,232.5 Z"/></g>
<g><path style="opacity:1" fill="#0a5180" d="M 94.5,235.5 C 97.0752,236.568 99.2419,238.235 101,240.5C 107.089,250.257 110.423,260.923 111,272.5C 111.508,284.678 112.341,296.678 113.5,308.5C 107.208,322.804 107.042,337.137 113,351.5C 116.489,355.838 120.656,359.171 125.5,361.5C 125.5,362.167 125.5,362.833 125.5,363.5C 116.167,363.5 106.833,363.5 97.5,363.5C 97.5,362.833 97.5,362.167 97.5,361.5C 101.215,345.591 104.549,329.591 107.5,313.5C 97.8333,313.5 88.1667,313.5 78.5,313.5C 77.6314,311.283 77.298,308.95 77.5,306.5C 77.8016,303.941 77.4682,301.607 76.5,299.5C 76.5,290.5 76.5,281.5 76.5,272.5C 77.5279,264.083 79.0279,255.749 81,247.5C 83.2691,240.717 87.7691,236.717 94.5,235.5 Z"/></g>
<g><path style="opacity:1" fill="#be6a2a" d="M 169.5,243.5 C 157.126,254.374 145.959,266.374 136,279.5C 127.466,292.432 122.966,306.599 122.5,322C 120.979,340.478 129.312,351.478 147.5,355C 173.787,356.011 198.787,350.845 222.5,339.5C 222.5,341.5 222.5,343.5 222.5,345.5C 219.402,347.892 216.069,350.058 212.5,352C 199.959,356.466 187.292,359.966 174.5,362.5C 158.089,362.818 141.756,362.484 125.5,361.5C 120.656,359.171 116.489,355.838 113,351.5C 107.042,337.137 107.208,322.804 113.5,308.5C 124.293,280.041 142.96,258.374 169.5,243.5 Z"/></g>
<g><path style="opacity:1" fill="#11766b" d="M 546.5,278.5 C 542.913,283.335 540.08,288.668 538,294.5C 536.053,290.443 532.886,288.943 528.5,290C 525.933,292.396 523.6,294.896 521.5,297.5C 517.262,293.018 514.095,293.684 512,299.5C 509.675,292.17 505.841,285.836 500.5,280.5C 501.419,274.208 504.753,272.374 510.5,275C 512.049,276.214 513.215,277.714 514,279.5C 514.035,272.675 516.201,266.675 520.5,261.5C 523.903,259.813 526.736,260.48 529,263.5C 529.914,267.142 530.748,270.808 531.5,274.5C 534.549,272.534 537.882,272.034 541.5,273C 544.079,274.076 545.746,275.909 546.5,278.5 Z"/></g>
<g><path style="opacity:1" fill="#0a517f" d="M 306.5,269.5 C 307.833,269.5 309.167,269.5 310.5,269.5C 296.597,300.476 282.263,331.31 267.5,362C 250.503,362.5 233.503,362.667 216.5,362.5C 216.107,359.07 216.773,355.904 218.5,353C 226.493,352.5 234.493,352.334 242.5,352.5C 250.507,352.666 258.507,352.5 266.5,352C 268.139,348.902 269.473,345.736 270.5,342.5C 272.341,340.151 273.674,337.485 274.5,334.5C 279.072,325.687 283.406,316.687 287.5,307.5C 293.45,294.658 299.783,281.992 306.5,269.5 Z"/></g>
<g><path style="opacity:1" fill="#02588d" d="M 310.5,269.5 C 315.167,269.5 319.833,269.5 324.5,269.5C 334.906,314.077 361.906,343.577 405.5,358C 406.252,358.671 406.586,359.504 406.5,360.5C 406.5,360.833 406.5,361.167 406.5,361.5C 343.381,363.491 280.048,364.157 216.5,363.5C 216.5,363.167 216.5,362.833 216.5,362.5C 233.503,362.667 250.503,362.5 267.5,362C 282.263,331.31 296.597,300.476 310.5,269.5 Z"/></g>
<g><path style="opacity:1" fill="#065d94" d="M 306.5,269.5 C 352.998,268.335 399.665,268.168 446.5,269C 447.574,269.739 448.241,270.739 448.5,272C 434.589,301.652 420.589,331.152 406.5,360.5C 406.586,359.504 406.252,358.671 405.5,358C 361.906,343.577 334.906,314.077 324.5,269.5C 319.833,269.5 315.167,269.5 310.5,269.5C 309.167,269.5 307.833,269.5 306.5,269.5 Z"/></g>
<g><path style="opacity:1" fill="#bacfdb" d="M 85.5,265.5 C 86.4646,266.721 86.298,268.054 85,269.5C 84.3333,272.167 84.3333,274.833 85,277.5C 87.5256,281.913 89.3589,286.58 90.5,291.5C 88.1122,297.276 86.6122,303.276 86,309.5C 84.977,308.4 84.477,307.067 84.5,305.5C 86.4082,301.011 87.7415,296.345 88.5,291.5C 86.6572,285.64 84.6572,279.807 82.5,274C 83.0119,270.963 84.0119,268.129 85.5,265.5 Z"/></g>
<g><path style="opacity:1" fill="#14a093" d="M 500.5,280.5 C 505.841,285.836 509.675,292.17 512,299.5C 514.095,293.684 517.262,293.018 521.5,297.5C 523.844,302.843 525.344,308.51 526,314.5C 528.522,311.674 530.522,312.007 532,315.5C 532.333,319.5 532.667,323.5 533,327.5C 534.366,325.63 535.533,323.63 536.5,321.5C 532.872,313.196 531.372,304.529 532,295.5C 532.835,303.683 534.502,311.683 537,319.5C 539.921,314.659 542.588,309.659 545,304.5C 544.67,298.521 544.67,292.521 545,286.5C 545.503,291.19 546.17,295.857 547,300.5C 549,296.5 551,292.5 553,288.5C 553.333,284.833 553.667,281.167 554,277.5C 554.333,279.833 554.667,282.167 555,284.5C 555.333,283.833 555.667,283.167 556,282.5C 556.309,283.766 556.809,284.933 557.5,286C 554.039,289.079 551.705,292.913 550.5,297.5C 551.025,298.192 551.692,298.692 552.5,299C 551.271,300.529 549.771,301.696 548,302.5C 545.372,307.59 542.872,312.757 540.5,318C 544.305,316.926 547.971,315.592 551.5,314C 547.668,316.75 543.668,319.25 539.5,321.5C 537.628,323.91 536.295,326.577 535.5,329.5C 529.5,329.5 523.5,329.5 517.5,329.5C 517.497,319.266 517.33,308.932 517,298.5C 516.667,306.5 516.333,314.5 516,322.5C 515.751,323.624 515.251,324.624 514.5,325.5C 510.51,321.341 506.676,317.007 503,312.5C 502.573,304.752 501.573,297.085 500,289.5C 500.356,295.812 500.356,302.145 500,308.5C 495.298,303.63 490.465,298.963 485.5,294.5C 482.012,294.295 478.679,293.461 475.5,292C 482.52,293.007 482.854,291.007 476.5,286C 474.5,285.333 472.5,284.667 470.5,284C 471.5,283.667 472.5,283.333 473.5,283C 471.963,281.293 470.296,279.793 468.5,278.5C 470.516,275.856 473.183,275.023 476.5,276C 482.871,279.365 488.371,283.865 493,289.5C 491.816,283.196 494.316,280.196 500.5,280.5 Z"/></g>
<g><path style="opacity:1" fill="#be6a29" d="M 182.5,275.5 C 183.043,275.56 183.376,275.893 183.5,276.5C 177.194,290.445 170.361,304.112 163,317.5C 161.686,320.089 161.019,322.756 161,325.5C 165.743,326.894 170.576,328.06 175.5,329C 189.572,329.73 203.572,329.397 217.5,328C 196.765,332.797 176.098,332.464 155.5,327C 149.782,326.484 144.115,326.484 138.5,327C 143.357,325.292 148.357,324.125 153.5,323.5C 160.653,305.839 170.32,289.839 182.5,275.5 Z"/></g>
<g><path style="opacity:1" fill="#a7c0d1" d="M 98.5,272.5 C 99.2389,272.369 99.9056,272.536 100.5,273C 99.8778,274.569 99.5445,276.236 99.5,278C 100.5,282.333 101.5,286.667 102.5,291C 102.344,294.817 101.178,298.317 99,301.5C 98.5783,304.236 98.5783,306.902 99,309.5C 97.9363,308.056 97.4363,306.389 97.5,304.5C 98.9459,300.105 99.9459,295.605 100.5,291C 100.094,286.524 99.0937,282.19 97.5,278C 97.6962,276.122 98.0295,274.288 98.5,272.5 Z"/></g>
<g><path style="opacity:1" fill="#148e83" d="M 468.5,278.5 C 470.296,279.793 471.963,281.293 473.5,283C 472.5,283.333 471.5,283.667 470.5,284C 472.5,284.667 474.5,285.333 476.5,286C 482.854,291.007 482.52,293.007 475.5,292C 478.679,293.461 482.012,294.295 485.5,294.5C 489.933,300.108 494.6,305.608 499.5,311C 493.395,310.969 487.395,310.302 481.5,309C 487.837,311.918 494.504,313.584 501.5,314C 505.52,317.885 509.186,322.052 512.5,326.5C 511.167,326.833 509.833,327.167 508.5,327.5C 504.156,326.66 499.822,326.16 495.5,326C 499.254,327.309 502.921,328.475 506.5,329.5C 499.5,329.5 492.5,329.5 485.5,329.5C 482.645,327.494 480.479,324.828 479,321.5C 478.289,319.633 478.789,318.133 480.5,317C 476.421,314.925 472.921,312.092 470,308.5C 468.214,301.439 471.048,298.272 478.5,299C 473.854,295.358 470.354,290.858 468,285.5C 467.297,283.071 467.463,280.738 468.5,278.5 Z"/></g>
<g><path style="opacity:1" fill="#12887d" d="M 565.5,328.5 C 555.582,329.474 545.582,329.807 535.5,329.5C 536.295,326.577 537.628,323.91 539.5,321.5C 543.668,319.25 547.668,316.75 551.5,314C 547.971,315.592 544.305,316.926 540.5,318C 542.872,312.757 545.372,307.59 548,302.5C 549.771,301.696 551.271,300.529 552.5,299C 551.692,298.692 551.025,298.192 550.5,297.5C 551.705,292.913 554.039,289.079 557.5,286C 556.809,284.933 556.309,283.766 556,282.5C 555.667,283.167 555.333,283.833 555,284.5C 554.667,282.167 554.333,279.833 554,277.5C 553.667,281.167 553.333,284.833 553,288.5C 551,292.5 549,296.5 547,300.5C 546.17,295.857 545.503,291.19 545,286.5C 544.67,292.521 544.67,298.521 545,304.5C 542.588,309.659 539.921,314.659 537,319.5C 534.502,311.683 532.835,303.683 532,295.5C 531.372,304.529 532.872,313.196 536.5,321.5C 535.533,323.63 534.366,325.63 533,327.5C 532.667,323.5 532.333,319.5 532,315.5C 530.522,312.007 528.522,311.674 526,314.5C 525.344,308.51 523.844,302.843 521.5,297.5C 523.6,294.896 525.933,292.396 528.5,290C 532.886,288.943 536.053,290.443 538,294.5C 540.08,288.668 542.913,283.335 546.5,278.5C 549.554,276.307 552.887,274.64 556.5,273.5C 559.271,273.756 561.438,275.09 563,277.5C 564.19,284.26 563.023,290.594 559.5,296.5C 559.667,296.833 559.833,297.167 560,297.5C 566.426,294.253 569.426,296.253 569,303.5C 568.64,305.421 567.806,307.088 566.5,308.5C 577.014,309.199 579.181,313.866 573,322.5C 570.914,325.094 568.414,327.094 565.5,328.5 Z"/></g>
<g><path style="opacity:1" fill="#c06c2c" d="M 274.5,334.5 C 273.674,337.485 272.341,340.151 270.5,342.5C 261.961,334.298 254.961,324.965 249.5,314.5C 251.092,308.644 253.258,302.977 256,297.5C 257.537,312.354 263.703,324.687 274.5,334.5 Z"/></g>
<g><path style="opacity:0.03" fill="#d7ecfb" d="M 76.5,299.5 C 77.4682,301.607 77.8016,303.941 77.5,306.5C 76.3054,306.134 75.6387,305.301 75.5,304C 76.1476,302.56 76.4809,301.06 76.5,299.5 Z"/></g>
<g><path style="opacity:1" fill="#76b9e4" d="M 377.5,305.5 C 382.493,305.997 383.493,308.164 380.5,312C 379.216,312.684 378.049,312.517 377,311.5C 376.322,309.402 376.489,307.402 377.5,305.5 Z"/></g>
<g><path style="opacity:1" fill="#15c2b1" d="M 517.5,329.5 C 513.833,329.5 510.167,329.5 506.5,329.5C 502.921,328.475 499.254,327.309 495.5,326C 499.822,326.16 504.156,326.66 508.5,327.5C 509.833,327.167 511.167,326.833 512.5,326.5C 509.186,322.052 505.52,317.885 501.5,314C 494.504,313.584 487.837,311.918 481.5,309C 487.395,310.302 493.395,310.969 499.5,311C 494.6,305.608 489.933,300.108 485.5,294.5C 490.465,298.963 495.298,303.63 500,308.5C 500.356,302.145 500.356,295.812 500,289.5C 501.573,297.085 502.573,304.752 503,312.5C 506.676,317.007 510.51,321.341 514.5,325.5C 515.251,324.624 515.751,323.624 516,322.5C 516.333,314.5 516.667,306.5 517,298.5C 517.33,308.932 517.497,319.266 517.5,329.5 Z"/></g>
<g><path style="opacity:1" fill="#80c1eb" d="M 364.5,308.5 C 373.158,307.327 376.992,310.994 376,319.5C 372.108,325.259 367.441,325.926 362,321.5C 359.458,316.438 360.292,312.105 364.5,308.5 Z"/></g>
<g><path style="opacity:1" fill="#1c8f85" d="M 48.5,314.5 C 52.8333,314.5 57.1667,314.5 61.5,314.5C 60.8046,332.27 67.4712,346.437 81.5,357C 86.5054,359.668 91.8387,361.168 97.5,361.5C 97.5,362.167 97.5,362.833 97.5,363.5C 84.5,363.5 71.5,363.5 58.5,363.5C 58.7373,362.209 58.404,361.209 57.5,360.5C 57.3844,356.243 55.5511,355.243 52,357.5C 34.1533,355.169 26.3199,345.169 28.5,327.5C 29.1667,327.5 29.5,327.167 29.5,326.5C 29.6757,334.213 32.1757,341.213 37,347.5C 41.8897,351.551 47.3897,352.551 53.5,350.5C 54.1471,349.726 54.4805,348.726 54.5,347.5C 53.5723,343.197 52.9056,338.864 52.5,334.5C 51.4915,329.717 50.4915,325.05 49.5,320.5C 48.6993,318.958 48.366,317.292 48.5,315.5C 48.5,315.167 48.5,314.833 48.5,314.5 Z M 52.5,334.5 C 52.9056,338.864 53.5723,343.197 54.5,347.5C 54.4805,348.726 54.1471,349.726 53.5,350.5C 48.4752,349.403 43.9752,347.069 40,343.5C 35.2648,328.467 39.4315,325.467 52.5,334.5 Z"/></g>
<g><path style="opacity:1" fill="#159d90" d="M 48.5,314.5 C 51.9619,313.518 55.6286,313.185 59.5,313.5C 65.8333,313.5 72.1667,313.5 78.5,313.5C 88.1667,313.5 97.8333,313.5 107.5,313.5C 104.549,329.591 101.215,345.591 97.5,361.5C 91.8387,361.168 86.5054,359.668 81.5,357C 67.4712,346.437 60.8046,332.27 61.5,314.5C 57.1667,314.5 52.8333,314.5 48.5,314.5 Z"/></g>
<g><path style="opacity:1" fill="#dcecf9" d="M 249.5,314.5 C 254.961,324.965 261.961,334.298 270.5,342.5C 269.473,345.736 268.139,348.902 266.5,352C 258.507,352.5 250.507,352.666 242.5,352.5C 242.5,350.5 242.5,348.5 242.5,346.5C 244.461,348.312 246.794,349.312 249.5,349.5C 249.714,347.856 249.38,346.356 248.5,345C 251.447,345.152 254.447,345.319 257.5,345.5C 257.731,342.215 256.397,339.715 253.5,338C 254.793,337.51 256.127,337.343 257.5,337.5C 257.649,336.448 257.483,335.448 257,334.5C 253.919,331.707 250.419,329.54 246.5,328C 245.748,327.329 245.414,326.496 245.5,325.5C 246.438,321.687 247.771,318.021 249.5,314.5 Z"/></g>
<g><path style="opacity:1" fill="#2aa297" d="M 49.5,320.5 C 50.4915,325.05 51.4915,329.717 52.5,334.5C 39.4315,325.467 35.2648,328.467 40,343.5C 43.9752,347.069 48.4752,349.403 53.5,350.5C 47.3897,352.551 41.8897,351.551 37,347.5C 32.1757,341.213 29.6757,334.213 29.5,326.5C 30.8615,323.138 33.1949,320.805 36.5,319.5C 40.8635,318.537 45.0301,319.204 49,321.5C 49.3988,321.272 49.5654,320.938 49.5,320.5 Z"/></g>
<g><path style="opacity:1" fill="#fca486" d="M 245.5,325.5 C 245.414,326.496 245.748,327.329 246.5,328C 250.419,329.54 253.919,331.707 257,334.5C 257.483,335.448 257.649,336.448 257.5,337.5C 256.127,337.343 254.793,337.51 253.5,338C 256.397,339.715 257.731,342.215 257.5,345.5C 254.447,345.319 251.447,345.152 248.5,345C 249.38,346.356 249.714,347.856 249.5,349.5C 246.794,349.312 244.461,348.312 242.5,346.5C 240.801,344.984 238.801,343.984 236.5,343.5C 231.948,344.986 227.281,345.652 222.5,345.5C 222.5,343.5 222.5,341.5 222.5,339.5C 222.882,335.46 221.882,331.793 219.5,328.5C 226.977,321.672 234.977,321.005 243.5,326.5C 244.183,326.137 244.85,325.804 245.5,325.5 Z"/></g>
<g><path style="opacity:1" fill="#217c91" d="M 565.5,328.5 C 566.742,330.611 566.742,332.611 565.5,334.5C 565.5,333.167 565.5,331.833 565.5,330.5C 538.833,330.5 512.167,330.5 485.5,330.5C 485.5,331.833 485.5,333.167 485.5,334.5C 484.167,332.833 484.167,331.167 485.5,329.5C 492.5,329.5 499.5,329.5 506.5,329.5C 510.167,329.5 513.833,329.5 517.5,329.5C 523.5,329.5 529.5,329.5 535.5,329.5C 545.582,329.807 555.582,329.474 565.5,328.5 Z"/></g>
<g><path style="opacity:1" fill="#52d7c4" d="M 101.5,317.5 C 102.124,317.917 102.457,318.584 102.5,319.5C 100.767,328.466 99.2668,337.466 98,346.5C 97.4169,348.002 96.5836,349.335 95.5,350.5C 96.5131,339.431 98.5131,328.431 101.5,317.5 Z"/></g>
<g><path style="opacity:1" fill="#005a91" d="M 565.5,334.5 C 538.833,334.5 512.167,334.5 485.5,334.5C 485.5,333.167 485.5,331.833 485.5,330.5C 512.167,330.5 538.833,330.5 565.5,330.5C 565.5,331.833 565.5,333.167 565.5,334.5 Z"/></g>
<g><path style="opacity:1" fill="#4cd2c0" d="M 96.5,319.5 C 97.1239,319.917 97.4573,320.584 97.5,321.5C 95.8538,327.063 94.8538,332.73 94.5,338.5C 93.325,338.719 92.325,338.386 91.5,337.5C 93.1717,331.487 94.8384,325.487 96.5,319.5 Z"/></g>
<g><path style="opacity:1" fill="#4188b5" d="M 564.5,339.5 C 551.851,338.167 538.851,337.501 525.5,337.5C 512.149,337.501 499.149,338.167 486.5,339.5C 485.596,338.791 485.263,337.791 485.5,336.5C 512.167,336.5 538.833,336.5 565.5,336.5C 565.737,337.791 565.404,338.791 564.5,339.5 Z"/></g>
<g><path style="opacity:1" fill="#015a91" d="M 564.5,339.5 C 564.768,341.099 564.434,342.432 563.5,343.5C 537.833,343.5 512.167,343.5 486.5,343.5C 486.5,342.167 486.5,340.833 486.5,339.5C 499.149,338.167 512.149,337.501 525.5,337.5C 538.851,337.501 551.851,338.167 564.5,339.5 Z"/></g>
<g><path style="opacity:1" fill="#a6d2ee" d="M 486.5,343.5 C 512.167,343.5 537.833,343.5 563.5,343.5C 563.768,345.099 563.434,346.432 562.5,347.5C 550.338,346.833 538.005,346.5 525.5,346.5C 512.815,346.501 500.481,347.168 488.5,348.5C 487.833,348.5 487.5,348.167 487.5,347.5C 487.567,346.041 487.234,344.708 486.5,343.5 Z"/></g>
<g><path style="opacity:1" fill="#cf732f" d="M 242.5,346.5 C 242.5,348.5 242.5,350.5 242.5,352.5C 234.493,352.334 226.493,352.5 218.5,353C 216.773,355.904 216.107,359.07 216.5,362.5C 202.5,362.5 188.5,362.5 174.5,362.5C 187.292,359.966 199.959,356.466 212.5,352C 216.069,350.058 219.402,347.892 222.5,345.5C 227.281,345.652 231.948,344.986 236.5,343.5C 238.801,343.984 240.801,344.984 242.5,346.5 Z"/></g>
<g><path style="opacity:1" fill="#065a8f" d="M 483.5,348.5 C 483.5,348.833 483.5,349.167 483.5,349.5C 463.909,350.487 444.243,350.821 424.5,350.5C 424.5,352.5 424.5,354.5 424.5,356.5C 444.243,356.179 463.909,356.513 483.5,357.5C 483.5,358.833 483.5,360.167 483.5,361.5C 461.833,362.833 440.167,362.833 418.5,361.5C 416.876,355.832 417.209,350.332 419.5,345C 440.831,344.5 462.164,344.333 483.5,344.5C 483.5,345.833 483.5,347.167 483.5,348.5 Z"/></g>
<g><path style="opacity:1" fill="#055b91" d="M 562.5,347.5 C 560.168,353.506 556.834,358.84 552.5,363.5C 534.5,363.5 516.5,363.5 498.5,363.5C 498.167,362.5 497.5,361.833 496.5,361.5C 493.013,357.678 490.347,353.345 488.5,348.5C 500.481,347.168 512.815,346.501 525.5,346.5C 538.005,346.5 550.338,346.833 562.5,347.5 Z"/></g>
<g><path style="opacity:1" fill="#b9def4" d="M 483.5,349.5 C 484.254,352.256 484.254,354.922 483.5,357.5C 463.909,356.513 444.243,356.179 424.5,356.5C 424.5,354.5 424.5,352.5 424.5,350.5C 444.243,350.821 463.909,350.487 483.5,349.5 Z"/></g>
<g><path style="opacity:0.328" fill="#b2d7ec" d="M 57.5,360.5 C 58.404,361.209 58.7373,362.209 58.5,363.5C 49.5,363.5 40.5,363.5 31.5,363.5C 40.3813,363.155 49.048,362.155 57.5,360.5 Z"/></g>
<g><path style="opacity:1" fill="#9a8571" d="M 125.5,361.5 C 141.756,362.484 158.089,362.818 174.5,362.5C 188.5,362.5 202.5,362.5 216.5,362.5C 216.5,362.833 216.5,363.167 216.5,363.5C 186.167,363.5 155.833,363.5 125.5,363.5C 125.5,362.833 125.5,362.167 125.5,361.5 Z"/></g>
<g><path style="opacity:0.999" fill="#86bcde" d="M 418.5,361.5 C 440.167,362.833 461.833,362.833 483.5,361.5C 487.833,362.833 492.167,362.833 496.5,361.5C 497.5,361.833 498.167,362.5 498.5,363.5C 467.662,363.831 436.995,363.498 406.5,362.5C 410.702,362.817 414.702,362.483 418.5,361.5 Z"/></g>
<g><path style="opacity:1" fill="#57a7d8" d="M 406.5,361.5 C 406.5,361.833 406.5,362.167 406.5,362.5C 436.995,363.498 467.662,363.831 498.5,363.5C 516.5,363.5 534.5,363.5 552.5,363.5C 562.833,363.5 573.167,363.5 583.5,363.5C 586.092,368.535 586.092,373.702 583.5,379C 399.5,379.667 215.5,379.667 31.5,379C 27.6276,373.703 27.6276,368.536 31.5,363.5C 40.5,363.5 49.5,363.5 58.5,363.5C 71.5,363.5 84.5,363.5 97.5,363.5C 106.833,363.5 116.167,363.5 125.5,363.5C 155.833,363.5 186.167,363.5 216.5,363.5C 280.048,364.157 343.381,363.491 406.5,361.5 Z"/></g>
</svg>
