<?xml version="1.0" encoding="UTF-8"?>
<svg id="Layer_2" data-name="Layer 2" xmlns="http://www.w3.org/2000/svg" viewBox="0 0 264.47 128.45">
  <defs>
    <style>
      .cls-1 {
        fill: none;
      }

      .cls-1, .cls-2 {
        stroke: #fff;
        stroke-miterlimit: 10;
      }

      .cls-2 {
        fill: #fff;
      }
    </style>
  </defs>
  <g id="Layer_1-2" data-name="Layer 1">
    <g>
      <path class="cls-2" d="M158.2,83.36c1.09,2.48,2.54,4.53,3.15,6.9,2.71,.8,5.4-.21,7.86,.65,.64,1.15,.36,2.26,.26,3.62h-38.29c-.44-1.2-.35-2.28-.09-3.38,1.23-.99,2.65-.48,3.97-.56,1.23-.08,2.46-.02,3.65-.02,1.21-2.43,2.3-4.63,3.53-7.11-1.2-.89-2.57-.52-3.8-.52-18.96-.03-37.92-.02-56.89-.02-5.22,0-6.16-.9-6.16-6,0-23.46,0-46.91,0-70.37,0-4.93,1.15-6.05,6.23-6.05H218.97c4.97,0,6.13,1.16,6.13,6.18,.01,23.46,.01,46.91,0,70.37,0,4.86-1.04,5.86-5.96,5.86-18.84,.01-37.67-.01-56.51,.02-1.35,0-2.74-.27-4.43,.43ZM221.51,5.17H79.13V78.16H221.51V5.17Z"/>
      <path class="cls-2" d="M237.41,101.74c-1.25,1.67-.34,3.09-1.34,4.42h-9.97v6.02h7.63c.66,1.65,.33,2.99,.33,4.61h-7.92c-.37,2.13-.23,3.96-.13,5.99,3.45,.69,6.94-.09,10.32,.45,.45,1.46,.4,2.79,.02,4.48h-16.37v-26.21c5.29,0,10.5-.2,15.67,.12,1.6,.1,3.12-.16,4.66-.22,2.48-.09,3.88,.65,4.67,3.16,1.42,4.5,3.17,8.89,4.78,13.34,.2,.57,.22,1.23,1.15,1.65,1.59-4.38,3.17-8.72,4.74-13.06q1.93-5.35,8.11-4.75c-3.48,8.7-6.91,17.29-10.32,25.82-1.99,.19-3.72,.24-5.62-.04-3.41-8.42-6.83-16.9-10.41-25.78Z"/>
      <path class="cls-2" d="M192.54,127.67v-26.07c4.21,0,8.31-.36,12.33,.08,7.19,.78,11.62,6.44,11.29,13.78-.3,6.74-5.27,11.8-12.25,12.17-3.69,.21-7.41,.04-11.37,.04Zm6.29-4.72c4.02,.22,7.73,.49,9.87-3.31,1.9-3.37,1.88-6.96-.12-10.27-2.24-3.7-5.94-3.3-9.75-3.13v16.71Z"/>
      <path class="cls-2" d="M44.6,114.63c3.69,1.92,4.93,3.82,4.44,6.84-.52,3.2-2.95,5.59-6.7,6.05-3.68,.45-7.4,.28-11.24,.07v-25.59c4.02,.03,8.08-.42,12.08,.43,2.42,.51,4.24,1.96,4.84,4.61,.58,2.6-.21,4.64-2.25,6.25-.48,.38-1.07,.63-1.17,1.34Zm-10.05,10.1c2.59,.17,5.05,.31,7.47-.1,2.2-.38,3.46-1.77,3.53-4.11,.07-2.35-1.06-3.74-3.32-4.22-2.54-.54-5.09-.58-7.68-.08v8.51Zm0-19.9v8.55c2.37,.08,4.59,.33,6.75-.2,2.12-.52,3.43-1.85,3.39-4.24-.04-2.4-1.33-3.61-3.56-4.02-2.08-.4-4.17-.35-6.58-.09Z"/>
      <path class="cls-2" d="M140.8,114.74c.05,7.85-5.01,13.15-12.59,13.18-7.59,.03-12.75-5.24-12.77-13.04-.02-7.71,5.25-13.26,12.63-13.29,7.44-.03,12.68,5.38,12.73,13.15Zm-12.56,10.09c5.57-.05,9.07-3.99,8.99-10.15-.08-6.11-3.76-10.11-9.23-10.02-5.44,.09-9.07,4.22-9.01,10.26,.06,6.16,3.62,9.96,9.25,9.91Z"/>
      <path class="cls-2" d="M13.14,127.92c-7.55-.03-12.67-5.38-12.64-13.18,.04-7.69,5.39-13.19,12.79-13.14s12.67,5.59,12.65,13.29c-.02,7.75-5.23,13.06-12.8,13.03Zm9.12-13.08c0-4.59-1.98-8.1-5.36-9.46-3.61-1.46-7.91-.57-10.33,2.13-3.01,3.36-3.29,10.24-.53,13.99,1.31,1.79,3.09,2.85,5.29,3.2,6.56,1.04,10.92-2.89,10.93-9.86Z"/>
      <path class="cls-2" d="M148.98,102.38c0,4.29-.02,8.62,.01,12.96,.01,1.24,.01,2.5,.22,3.71,.68,3.96,3.09,5.9,6.96,5.74,3.59-.15,5.94-2.27,6.19-6.13,.26-4.09,.13-8.21,.16-12.31,.01-1.24,0-2.49,0-3.68,.97-1.06,2.05-.74,3.09-.53,.15,.27,.35,.47,.35,.67,.01,5.35,.22,10.71-.06,16.05-.29,5.6-4.56,9.16-10.28,9.09-5.54-.07-9.44-3.61-9.95-9.07-.06-.62-.09-1.24-.09-1.86-.01-4.84,0-9.69,0-14.54,1.09-.78,2.11-.63,3.4-.1Z"/>
      <path class="cls-2" d="M93.15,127.52c-1.32,.23-2.29,.34-3.38-.12-3.37-8.28-6.77-16.64-10.2-25.08,2.39-.81,3.69-.23,4.53,1.99,2.28,6.03,4.73,11.99,7.38,18.64,2.11-5.28,4-10.01,5.89-14.74,.51-1.27,1.11-2.51,1.49-3.81,.66-2.27,2.06-2.89,4.55-2.1-3.43,8.4-6.83,16.76-10.26,25.22Z"/>
      <path class="cls-2" d="M172.03,122.4c2.01,1.48,4.01,2.7,6.52,2.6,2.73-.1,4.48-1.45,4.85-3.75,.43-2.63-1.12-3.9-3.28-4.71-1.51-.56-3.09-.97-4.57-1.6-3.03-1.28-4.4-3.37-4.31-6.32,.09-2.94,1.92-5.43,4.85-6.44,3.6-1.24,6.84-.43,9.71,1.71,.63,1.24-.49,1.63-.57,2.29-1.54,.44-2.25-.72-3.26-1.08-1.59-.56-3.11-.76-4.73-.19-1.58,.56-2.48,1.65-2.63,3.29-.14,1.54,.62,2.7,1.96,3.32,1.69,.78,3.47,1.34,5.2,2.04,3.89,1.57,5.48,3.88,5.07,7.29-.47,3.85-3.18,6.49-7.14,6.97-2.83,.34-5.44-.17-7.84-1.77-1.69-1.09-1.9-2.18,.17-3.65Z"/>
      <path class="cls-2" d="M57.54,124.75h10.62c.87,.99,.4,1.82,.6,2.79h-14.41v-25.08c.88-.79,1.9-.56,3.19-.14v22.43Z"/>
      <path class="cls-2" d="M75.93,127.43c-1.22,.37-2.17,.38-3.31,.03v-25.1c1.1-.69,2.14-.34,3.31-.16v25.23Z"/>
      <path class="cls-2" d="M110.26,127.57c-1.18,.11-2.15,.35-3.23-.21v-24.91c.86-.88,1.96-.36,3.23-.42v25.54Z"/>
      <path class="cls-1" d="M221.51,5.17V78.16H79.13V5.17H221.51Zm-60.2,7.79c-.07-.66-.36-1.21-1.03-1.4-.65-.19-1.27-.01-1.58,.62-.33,.66-.58,1.37-.82,2.08-5.81,17.04-11.62,34.08-17.38,51.13-.43,1.27-1.87,3.14,.2,3.8,2.02,.64,2.02-1.74,2.45-3,5.87-17.02,11.69-34.05,17.51-51.09,.25-.71,.43-1.43,.65-2.14Zm-42.57,28.29c.96-1.23,2.41-1.35,3.64-1.84,4.37-1.75,8.79-3.41,13.19-5.11,1.03-.4,2.39-.76,1.76-2.25-.6-1.42-1.76-.86-2.86-.43-6.58,2.59-13.18,5.12-19.78,7.67-.94,.36-1.88,.72-1.89,2.06,.18,.24,.33,.68,.61,.8,5.67,2.52,11.34,5.03,17.04,7.49,1.2,.52,2.17,.23,2.57-1.67-4.41-2.81-9.65-4.13-14.28-6.72Zm45.71-8.56c4.3,3.09,9.76,4.17,14.68,7.19-5.43,2.11-10.5,4.08-15.57,6.06-.92,.36-1.85,.71-2.74,1.14-.59,.29-.99,.88-.76,1.53,.26,.74,.87,1.22,1.73,1.08,.36-.06,.69-.27,1.03-.41,6.71-2.58,13.42-5.16,20.13-7.76,.93-.36,1.88-.76,1.71-2.18-.18-.2-.36-.59-.66-.72-5.55-2.47-11.11-4.92-16.68-7.34-1.12-.49-2.19-.53-2.87,1.41Z"/>
      <path class="cls-1" d="M198.83,122.95v-16.71c3.81-.17,7.51-.57,9.75,3.13,2,3.31,2.02,6.9,.12,10.27-2.13,3.79-5.84,3.53-9.87,3.31Z"/>
      <path class="cls-1" d="M34.55,124.73v-8.51c2.59-.51,5.14-.46,7.68,.08,2.26,.48,3.39,1.87,3.32,4.22-.07,2.34-1.33,3.74-3.53,4.11-2.42,.41-4.88,.26-7.47,.1Z"/>
      <path class="cls-1" d="M34.56,104.83c2.42-.27,4.5-.31,6.58,.07,2.23,.42,3.52,1.63,3.56,4.02,.04,2.39-1.28,3.72-3.39,4.24-2.16,.53-4.38,.28-6.75,.2v-8.53Z"/>
      <path class="cls-1" d="M128.24,124.83c-5.64,.05-9.19-3.76-9.25-9.91-.06-6.04,3.57-10.18,9.01-10.26,5.47-.09,9.15,3.91,9.23,10.02,.09,6.16-3.41,10.11-8.99,10.15Z"/>
      <path class="cls-1" d="M22.26,114.84c0,6.97-4.37,10.91-10.94,9.87-2.2-.35-3.97-1.41-5.29-3.2-2.75-3.75-2.48-10.63,.53-13.99,2.42-2.7,6.72-3.59,10.33-2.13,3.39,1.35,5.38,4.86,5.37,9.45Z"/>
      <path class="cls-2" d="M161.31,12.96c-.21,.72-.4,1.44-.64,2.14-5.82,17.03-11.64,34.07-17.51,51.09-.43,1.26-.43,3.64-2.45,3-2.07-.66-.63-2.53-.2-3.8,5.77-17.05,11.58-34.09,17.38-51.13,.24-.7,.49-1.41,.82-2.08,.32-.63,.93-.81,1.58-.62,.65,.19,.94,.73,1.02,1.4Z"/>
      <path class="cls-2" d="M118.74,41.25c4.63,2.59,9.86,3.91,14.28,6.72-.4,1.9-1.36,2.19-2.57,1.67-5.7-2.46-11.37-4.96-17.04-7.49-.29-.13-.44-.56-.61-.8,0-1.35,.95-1.7,1.89-2.06,6.6-2.55,13.2-5.09,19.78-7.67,1.1-.43,2.26-.99,2.86,.43,.63,1.49-.73,1.85-1.76,2.25-4.4,1.7-8.81,3.35-13.19,5.11-1.23,.49-2.68,.61-3.64,1.84Z"/>
      <path class="cls-2" d="M164.45,32.69c.68-1.94,1.74-1.89,2.87-1.4,5.57,2.42,11.13,4.87,16.68,7.34,.3,.13,.48,.52,.66,.72,.18,1.42-.78,1.82-1.71,2.18-6.71,2.6-13.42,5.17-20.13,7.76-.35,.13-.68,.35-1.03,.41-.86,.14-1.47-.34-1.73-1.08-.23-.65,.16-1.24,.76-1.53,.89-.44,1.82-.78,2.74-1.14,5.07-1.98,10.14-3.94,15.57-6.06-4.92-3.03-10.38-4.11-14.68-7.2Z"/>
    </g>
  </g>
</svg>